<svg xmlns="http://www.w3.org/2000/svg" width="800" height="1200" viewBox="0 0 800 1200" role="img" aria-label="Couverture : La Fille qui Comptait les Étoiles">
<defs>
 <radialGradient id="bg" cx="50%" cy="34%" r="80%">
  <stop offset="0%" stop-color="rgba(143,243,217,0.16)"/>
  <stop offset="45%" stop-color="#0b121a"/>
  <stop offset="100%" stop-color="#070b11"/>
 </radialGradient>
 <linearGradient id="fade" x1="0" y1="0" x2="0" y2="1">
  <stop offset="0%" stop-color="#070b11" stop-opacity="0"/>
  <stop offset="62%" stop-color="#070b11" stop-opacity="0"/>
  <stop offset="100%" stop-color="#070b11" stop-opacity="0.96"/>
 </linearGradient>
</defs>
<rect width="800" height="1200" fill="url(#bg)"/>
<g opacity="0.9"><circle cx="70" cy="992" r="1.2" fill="rgba(143,243,217,0.36)"/><circle cx="78" cy="642" r="1.6" fill="rgba(143,243,217,0.66)"/><circle cx="308" cy="736" r="1.4" fill="rgba(143,243,217,0.56)"/><circle cx="268" cy="225" r="0.7" fill="rgba(143,243,217,0.73)"/><circle cx="285" cy="1006" r="2.1" fill="rgba(143,243,217,0.35)"/><circle cx="795" cy="642" r="0.9" fill="rgba(143,243,217,0.61)"/><circle cx="358" cy="614" r="1.5" fill="rgba(143,243,217,0.25)"/><circle cx="401" cy="917" r="1.9" fill="rgba(143,243,217,0.71)"/><circle cx="573" cy="1180" r="2.0" fill="rgba(143,243,217,0.8)"/><circle cx="297" cy="912" r="2.3" fill="rgba(143,243,217,0.87)"/><circle cx="345" cy="399" r="2.4" fill="rgba(143,243,217,0.74)"/><circle cx="72" cy="1143" r="1.2" fill="rgba(143,243,217,0.69)"/><circle cx="423" cy="762" r="1.9" fill="rgba(143,243,217,0.87)"/><circle cx="205" cy="115" r="0.9" fill="rgba(143,243,217,0.56)"/><circle cx="249" cy="326" r="2.5" fill="rgba(143,243,217,0.94)"/><circle cx="392" cy="554" r="0.9" fill="rgba(143,243,217,0.71)"/><circle cx="155" cy="810" r="0.6" fill="rgba(143,243,217,0.59)"/><circle cx="6" cy="622" r="2.3" fill="rgba(143,243,217,0.79)"/><circle cx="22" cy="752" r="1.5" fill="rgba(143,243,217,0.61)"/><circle cx="272" cy="1193" r="1.8" fill="rgba(143,243,217,0.43)"/><circle cx="481" cy="647" r="2.0" fill="rgba(143,243,217,0.72)"/><circle cx="785" cy="748" r="2.1" fill="rgba(143,243,217,0.88)"/><circle cx="19" cy="1093" r="2.3" fill="rgba(143,243,217,0.77)"/><circle cx="514" cy="673" r="1.4" fill="rgba(143,243,217,0.81)"/><circle cx="786" cy="867" r="1.1" fill="rgba(143,243,217,0.99)"/><circle cx="372" cy="62" r="1.7" fill="rgba(143,243,217,0.98)"/><circle cx="588" cy="167" r="2.1" fill="rgba(143,243,217,0.45)"/><circle cx="584" cy="355" r="1.6" fill="rgba(143,243,217,0.87)"/><circle cx="265" cy="380" r="1.8" fill="rgba(143,243,217,0.98)"/><circle cx="366" cy="812" r="1.1" fill="rgba(143,243,217,0.65)"/><circle cx="790" cy="353" r="1.7" fill="rgba(143,243,217,0.29)"/><circle cx="735" cy="1084" r="1.5" fill="rgba(143,243,217,0.62)"/><circle cx="297" cy="1022" r="2.5" fill="rgba(143,243,217,0.61)"/><circle cx="416" cy="120" r="2.3" fill="rgba(143,243,217,0.94)"/><circle cx="714" cy="1140" r="1.8" fill="rgba(143,243,217,0.63)"/><circle cx="490" cy="279" r="1.7" fill="rgba(143,243,217,0.81)"/><circle cx="161" cy="228" r="2.5" fill="rgba(143,243,217,0.62)"/><circle cx="99" cy="429" r="1.1" fill="rgba(143,243,217,0.92)"/><circle cx="432" cy="221" r="0.9" fill="rgba(143,243,217,0.78)"/><circle cx="398" cy="646" r="1.5" fill="rgba(143,243,217,0.51)"/><circle cx="38" cy="991" r="0.8" fill="rgba(143,243,217,0.99)"/><circle cx="47" cy="988" r="1.1" fill="rgba(143,243,217,0.68)"/><circle cx="58" cy="876" r="1.4" fill="rgba(143,243,217,0.28)"/><circle cx="766" cy="473" r="2.5" fill="rgba(143,243,217,0.81)"/><circle cx="612" cy="1003" r="0.7" fill="rgba(143,243,217,0.67)"/><circle cx="500" cy="805" r="2.1" fill="rgba(143,243,217,0.87)"/><circle cx="127" cy="597" r="2.1" fill="rgba(143,243,217,0.96)"/><circle cx="564" cy="227" r="1.9" fill="rgba(143,243,217,0.93)"/><circle cx="408" cy="104" r="2.2" fill="rgba(143,243,217,0.36)"/><circle cx="428" cy="458" r="0.9" fill="rgba(143,243,217,0.95)"/><circle cx="100" cy="737" r="0.7" fill="rgba(143,243,217,0.72)"/><circle cx="331" cy="680" r="1.5" fill="rgba(143,243,217,0.61)"/><circle cx="674" cy="1174" r="1.8" fill="rgba(143,243,217,0.56)"/><circle cx="180" cy="242" r="0.9" fill="rgba(143,243,217,0.54)"/><circle cx="460" cy="402" r="2.1" fill="rgba(143,243,217,0.75)"/><circle cx="295" cy="370" r="2.6" fill="rgba(143,243,217,0.3)"/><circle cx="669" cy="926" r="0.9" fill="rgba(143,243,217,0.28)"/><circle cx="457" cy="926" r="1.1" fill="rgba(143,243,217,0.96)"/><circle cx="565" cy="1147" r="1.9" fill="rgba(143,243,217,0.72)"/><circle cx="355" cy="694" r="0.8" fill="rgba(143,243,217,0.26)"/><circle cx="752" cy="524" r="2.0" fill="rgba(143,243,217,0.33)"/><circle cx="473" cy="294" r="1.2" fill="rgba(143,243,217,0.91)"/><circle cx="623" cy="332" r="2.4" fill="rgba(143,243,217,0.75)"/><circle cx="356" cy="920" r="1.8" fill="rgba(143,243,217,0.95)"/><circle cx="747" cy="482" r="1.8" fill="rgba(143,243,217,0.9)"/><circle cx="304" cy="199" r="2.2" fill="rgba(143,243,217,0.37)"/><circle cx="398" cy="152" r="2.1" fill="rgba(143,243,217,0.65)"/><circle cx="693" cy="1039" r="1.4" fill="rgba(143,243,217,0.85)"/><circle cx="683" cy="934" r="1.3" fill="rgba(143,243,217,0.62)"/><circle cx="214" cy="910" r="1.8" fill="rgba(143,243,217,0.78)"/><circle cx="571" cy="17" r="2.2" fill="rgba(143,243,217,0.27)"/><circle cx="471" cy="308" r="2.0" fill="rgba(143,243,217,0.42)"/><circle cx="381" cy="335" r="2.3" fill="rgba(143,243,217,0.38)"/><circle cx="43" cy="769" r="1.8" fill="rgba(143,243,217,0.45)"/><circle cx="3" cy="537" r="1.2" fill="rgba(143,243,217,0.58)"/><circle cx="638" cy="124" r="2.1" fill="rgba(143,243,217,0.31)"/><circle cx="13" cy="75" r="1.7" fill="rgba(143,243,217,0.42)"/><circle cx="688" cy="640" r="2.0" fill="rgba(143,243,217,0.63)"/><circle cx="296" cy="362" r="1.5" fill="rgba(143,243,217,0.66)"/><circle cx="225" cy="590" r="1.9" fill="rgba(143,243,217,0.4)"/><circle cx="711" cy="1010" r="1.3" fill="rgba(143,243,217,0.47)"/><circle cx="452" cy="387" r="1.1" fill="rgba(143,243,217,0.48)"/><circle cx="310" cy="107" r="2.1" fill="rgba(143,243,217,0.84)"/><circle cx="474" cy="648" r="1.9" fill="rgba(143,243,217,0.91)"/><circle cx="284" cy="574" r="2.4" fill="rgba(143,243,217,0.51)"/><circle cx="641" cy="144" r="1.8" fill="rgba(143,243,217,0.41)"/><circle cx="361" cy="717" r="1.6" fill="rgba(143,243,217,0.47)"/><circle cx="696" cy="1119" r="1.8" fill="rgba(143,243,217,0.44)"/><circle cx="114" cy="441" r="1.7" fill="rgba(143,243,217,0.64)"/><circle cx="384" cy="1074" r="0.6" fill="rgba(143,243,217,0.33)"/><circle cx="272" cy="397" r="0.6" fill="rgba(143,243,217,0.95)"/><circle cx="547" cy="39" r="1.6" fill="rgba(143,243,217,0.33)"/><circle cx="248" cy="76" r="1.9" fill="rgba(143,243,217,0.8)"/><circle cx="26" cy="1038" r="1.4" fill="rgba(143,243,217,0.4)"/><circle cx="91" cy="845" r="0.8" fill="rgba(143,243,217,0.96)"/><circle cx="309" cy="784" r="1.8" fill="rgba(143,243,217,0.73)"/><circle cx="682" cy="1055" r="1.4" fill="rgba(143,243,217,0.88)"/><circle cx="717" cy="582" r="2.6" fill="rgba(143,243,217,0.86)"/><circle cx="81" cy="735" r="2.3" fill="rgba(143,243,217,0.97)"/><circle cx="762" cy="1016" r="2.6" fill="rgba(143,243,217,0.55)"/><circle cx="87" cy="577" r="2.1" fill="rgba(143,243,217,0.75)"/><circle cx="114" cy="574" r="1.7" fill="rgba(143,243,217,0.45)"/><circle cx="159" cy="1184" r="1.7" fill="rgba(143,243,217,0.47)"/><circle cx="750" cy="67" r="1.7" fill="rgba(143,243,217,0.28)"/><circle cx="465" cy="760" r="0.8" fill="rgba(143,243,217,0.31)"/><circle cx="346" cy="1054" r="1.5" fill="rgba(143,243,217,0.91)"/><circle cx="247" cy="1083" r="1.2" fill="rgba(143,243,217,0.44)"/><circle cx="592" cy="874" r="1.6" fill="rgba(143,243,217,0.68)"/><circle cx="143" cy="418" r="1.7" fill="rgba(143,243,217,0.84)"/><circle cx="109" cy="466" r="2.5" fill="rgba(143,243,217,0.3)"/><circle cx="753" cy="209" r="1.4" fill="rgba(143,243,217,0.56)"/><circle cx="775" cy="329" r="1.5" fill="rgba(143,243,217,0.29)"/><circle cx="755" cy="396" r="1.6" fill="rgba(143,243,217,0.27)"/><circle cx="435" cy="810" r="2.5" fill="rgba(143,243,217,0.87)"/><circle cx="382" cy="786" r="1.7" fill="rgba(143,243,217,0.92)"/><circle cx="634" cy="1010" r="2.6" fill="rgba(143,243,217,0.75)"/><circle cx="373" cy="842" r="1.5" fill="rgba(143,243,217,0.59)"/><circle cx="427" cy="844" r="1.0" fill="rgba(143,243,217,0.44)"/><circle cx="479" cy="1152" r="1.2" fill="rgba(143,243,217,0.56)"/><circle cx="392" cy="426" r="2.6" fill="rgba(143,243,217,0.52)"/><circle cx="584" cy="81" r="2.1" fill="rgba(143,243,217,0.72)"/><circle cx="639" cy="1144" r="0.7" fill="rgba(143,243,217,0.41)"/><circle cx="473" cy="999" r="2.2" fill="rgba(143,243,217,0.87)"/><circle cx="580" cy="883" r="1.2" fill="rgba(143,243,217,0.78)"/><circle cx="154" cy="849" r="2.2" fill="rgba(143,243,217,0.79)"/><circle cx="761" cy="724" r="2.2" fill="rgba(143,243,217,0.84)"/><circle cx="431" cy="1001" r="1.1" fill="rgba(143,243,217,0.65)"/><circle cx="714" cy="593" r="2.2" fill="rgba(143,243,217,0.68)"/><circle cx="421" cy="456" r="2.6" fill="rgba(143,243,217,0.71)"/><circle cx="721" cy="906" r="1.1" fill="rgba(143,243,217,0.84)"/><circle cx="236" cy="1154" r="1.5" fill="rgba(143,243,217,0.43)"/><circle cx="381" cy="362" r="2.1" fill="rgba(143,243,217,0.65)"/><circle cx="533" cy="628" r="1.3" fill="rgba(143,243,217,0.51)"/><circle cx="608" cy="879" r="0.8" fill="rgba(143,243,217,0.96)"/><circle cx="687" cy="186" r="1.1" fill="rgba(143,243,217,0.26)"/><circle cx="759" cy="14" r="1.7" fill="rgba(143,243,217,0.26)"/><circle cx="656" cy="68" r="1.8" fill="rgba(143,243,217,0.55)"/><circle cx="541" cy="1045" r="2.3" fill="rgba(143,243,217,0.84)"/><circle cx="200" cy="1190" r="0.8" fill="rgba(143,243,217,0.83)"/><circle cx="380" cy="186" r="2.6" fill="rgba(143,243,217,0.41)"/><circle cx="351" cy="589" r="0.7" fill="rgba(143,243,217,0.67)"/><circle cx="651" cy="702" r="1.7" fill="rgba(143,243,217,0.91)"/><circle cx="691" cy="724" r="1.0" fill="rgba(143,243,217,0.32)"/><circle cx="140" cy="790" r="0.8" fill="rgba(143,243,217,0.49)"/><circle cx="179" cy="975" r="2.3" fill="rgba(143,243,217,0.57)"/><circle cx="647" cy="617" r="2.1" fill="rgba(143,243,217,0.62)"/><circle cx="633" cy="701" r="2.2" fill="rgba(143,243,217,0.59)"/><circle cx="210" cy="300" r="1.0" fill="rgba(143,243,217,0.3)"/><circle cx="262" cy="650" r="2.1" fill="rgba(143,243,217,0.79)"/><circle cx="268" cy="609" r="1.6" fill="rgba(143,243,217,0.42)"/><circle cx="512" cy="192" r="1.4" fill="rgba(143,243,217,0.28)"/><circle cx="169" cy="1061" r="1.0" fill="rgba(143,243,217,0.65)"/><circle cx="225" cy="529" r="0.6" fill="rgba(143,243,217,0.58)"/><circle cx="3" cy="370" r="0.7" fill="rgba(143,243,217,0.34)"/><circle cx="652" cy="207" r="1.4" fill="rgba(143,243,217,0.55)"/><circle cx="368" cy="841" r="2.2" fill="rgba(143,243,217,0.98)"/><circle cx="475" cy="769" r="1.6" fill="rgba(143,243,217,0.29)"/><circle cx="726" cy="784" r="2.4" fill="rgba(143,243,217,0.89)"/><circle cx="377" cy="544" r="2.3" fill="rgba(143,243,217,0.37)"/><circle cx="490" cy="980" r="1.3" fill="rgba(143,243,217,0.47)"/><line x1="601" y1="594" x2="381" y2="296" stroke="rgba(143,243,217,0.4)" stroke-width="1"/><line x1="381" y1="296" x2="282" y2="340" stroke="rgba(143,243,217,0.4)" stroke-width="1"/><line x1="282" y1="340" x2="318" y2="734" stroke="rgba(143,243,217,0.4)" stroke-width="1"/><line x1="318" y1="734" x2="293" y2="712" stroke="rgba(143,243,217,0.4)" stroke-width="1"/><line x1="293" y1="712" x2="616" y2="739" stroke="rgba(143,243,217,0.4)" stroke-width="1"/><circle cx="601" cy="594" r="3.4" fill="#8ff3d9"/><circle cx="381" cy="296" r="3.4" fill="#8ff3d9"/><circle cx="282" cy="340" r="3.4" fill="#8ff3d9"/><circle cx="318" cy="734" r="3.4" fill="#8ff3d9"/><circle cx="293" cy="712" r="3.4" fill="#8ff3d9"/><circle cx="616" cy="739" r="3.4" fill="#8ff3d9"/></g>
<rect width="800" height="1200" fill="url(#fade)"/>
<rect x="0" y="0" width="800" height="1200" fill="none" stroke="rgba(143,243,217,0.35)" stroke-width="2"/>
<g transform="translate(60,120) scale(0.62)"><g fill="none" stroke="#8ff3d9" stroke-width="7" stroke-linecap="round"><path d="M100,100 C96,80 108,60 132,60 C156,60 168,82 156,103 C148,118 130,120 120,109 C114,102 116,91 125,89"/><path transform="rotate(120 100 100)" d="M100,100 C96,80 108,60 132,60 C156,60 168,82 156,103 C148,118 130,120 120,109 C114,102 116,91 125,89"/><path transform="rotate(240 100 100)" d="M100,100 C96,80 108,60 132,60 C156,60 168,82 156,103 C148,118 130,120 120,109 C114,102 116,91 125,89"/></g><circle cx="100" cy="100" r="5" fill="#8ff3d9"/></g>
<text x="60" y="238" font-family="monospace" font-size="20" letter-spacing="4" fill="#8ff3d9">CONTE POÉTIQUE</text>
<text x="60" y="900" font-family="'Space Grotesk',system-ui,sans-serif" font-weight="700" font-size="64" fill="#e8f2ee" letter-spacing="-1">La Fille qui</text><text x="60" y="972" font-family="'Space Grotesk',system-ui,sans-serif" font-weight="700" font-size="64" fill="#e8f2ee" letter-spacing="-1">Comptait les</text><text x="60" y="1044" font-family="'Space Grotesk',system-ui,sans-serif" font-weight="700" font-size="64" fill="#e8f2ee" letter-spacing="-1">Étoiles</text>
<line x1="60" y1="1122" x2="240" y2="1122" stroke="#8ff3d9" stroke-width="3"/>
<text x="60" y="1120" font-family="monospace" font-size="22" letter-spacing="1" fill="#9db2ae">TRU<tspan fill="#8ff3d9">vector</tspan>.dev</text>
<text x="60" y="1150" font-family="monospace" font-size="14" letter-spacing="2" fill="#6f8582">NOUVELLE · ÉDITION NUMÉRIQUE</text>
</svg>